solid OpenSCAD_Model
  facet normal -1 0 0
    outer loop
      vertex 0 0 0
      vertex 0 30 350
      vertex 0 30 0
    endloop
  endfacet
  facet normal -1 -0 0
    outer loop
      vertex 0 30 350
      vertex 0 0 0
      vertex 0 0 350
    endloop
  endfacet
  facet normal 0 0 1
    outer loop
      vertex 1.5 30 350
      vertex 0 30 350
      vertex 1.5 1.5 350
    endloop
  endfacet
  facet normal -0 0 1
    outer loop
      vertex 1.5 1.5 350
      vertex 30 0 350
      vertex 30 1.5 350
    endloop
  endfacet
  facet normal 0 0 1
    outer loop
      vertex 1.5 1.5 350
      vertex 0 0 350
      vertex 30 0 350
    endloop
  endfacet
  facet normal 0 0 1
    outer loop
      vertex 0 0 350
      vertex 1.5 1.5 350
      vertex 0 30 350
    endloop
  endfacet
  facet normal 1 -0 0
    outer loop
      vertex 30 0 350
      vertex 30 1.5 0
      vertex 30 1.5 350
    endloop
  endfacet
  facet normal 1 0 0
    outer loop
      vertex 30 1.5 0
      vertex 30 0 350
      vertex 30 0 0
    endloop
  endfacet
  facet normal 0 0 -1
    outer loop
      vertex 30 0 0
      vertex 1.5 1.5 0
      vertex 30 1.5 0
    endloop
  endfacet
  facet normal 0 0 -1
    outer loop
      vertex 0 0 0
      vertex 1.5 1.5 0
      vertex 30 0 0
    endloop
  endfacet
  facet normal 0 0 -1
    outer loop
      vertex 0 30 0
      vertex 1.5 1.5 0
      vertex 0 0 0
    endloop
  endfacet
  facet normal 0 0 -1
    outer loop
      vertex 1.5 1.5 0
      vertex 0 30 0
      vertex 1.5 30 0
    endloop
  endfacet
  facet normal 0 -1 0
    outer loop
      vertex 0 0 0
      vertex 30 0 350
      vertex 0 0 350
    endloop
  endfacet
  facet normal 0 -1 -0
    outer loop
      vertex 30 0 350
      vertex 0 0 0
      vertex 30 0 0
    endloop
  endfacet
  facet normal 0 1 -0
    outer loop
      vertex 30 1.5 0
      vertex 1.5 1.5 350
      vertex 30 1.5 350
    endloop
  endfacet
  facet normal 0 1 0
    outer loop
      vertex 1.5 1.5 350
      vertex 30 1.5 0
      vertex 1.5 1.5 0
    endloop
  endfacet
  facet normal 1 -0 0
    outer loop
      vertex 1.5 1.5 350
      vertex 1.5 30 0
      vertex 1.5 30 350
    endloop
  endfacet
  facet normal 1 0 0
    outer loop
      vertex 1.5 30 0
      vertex 1.5 1.5 350
      vertex 1.5 1.5 0
    endloop
  endfacet
  facet normal 0 1 -0
    outer loop
      vertex 1.5 30 0
      vertex 0 30 350
      vertex 1.5 30 350
    endloop
  endfacet
  facet normal 0 1 0
    outer loop
      vertex 0 30 350
      vertex 1.5 30 0
      vertex 0 30 0
    endloop
  endfacet
endsolid OpenSCAD_Model
