solid OpenSCAD_Model
  facet normal -1 0 0
    outer loop
      vertex 0 30 0
      vertex 0 1.5 1.5
      vertex 0 30 1.5
    endloop
  endfacet
  facet normal -1 0 0
    outer loop
      vertex 0 0 0
      vertex 0 1.5 1.5
      vertex 0 30 0
    endloop
  endfacet
  facet normal -1 0 0
    outer loop
      vertex 0 0 30
      vertex 0 1.5 1.5
      vertex 0 0 0
    endloop
  endfacet
  facet normal -1 0 0
    outer loop
      vertex 0 1.5 1.5
      vertex 0 0 30
      vertex 0 1.5 30
    endloop
  endfacet
  facet normal -0 0 1
    outer loop
      vertex 0 1.5 30
      vertex 290 0 30
      vertex 290 1.5 30
    endloop
  endfacet
  facet normal 0 0 1
    outer loop
      vertex 290 0 30
      vertex 0 1.5 30
      vertex 0 0 30
    endloop
  endfacet
  facet normal 1 0 0
    outer loop
      vertex 290 1.5 30
      vertex 290 0 30
      vertex 290 1.5 1.5
    endloop
  endfacet
  facet normal 1 -0 0
    outer loop
      vertex 290 1.5 1.5
      vertex 290 30 0
      vertex 290 30 1.5
    endloop
  endfacet
  facet normal 1 0 0
    outer loop
      vertex 290 1.5 1.5
      vertex 290 0 0
      vertex 290 30 0
    endloop
  endfacet
  facet normal 1 0 0
    outer loop
      vertex 290 0 0
      vertex 290 1.5 1.5
      vertex 290 0 30
    endloop
  endfacet
  facet normal 0 0 -1
    outer loop
      vertex 0 0 0
      vertex 290 30 0
      vertex 290 0 0
    endloop
  endfacet
  facet normal -0 0 -1
    outer loop
      vertex 290 30 0
      vertex 0 0 0
      vertex 0 30 0
    endloop
  endfacet
  facet normal 0 -1 0
    outer loop
      vertex 0 0 0
      vertex 290 0 30
      vertex 0 0 30
    endloop
  endfacet
  facet normal 0 -1 -0
    outer loop
      vertex 290 0 30
      vertex 0 0 0
      vertex 290 0 0
    endloop
  endfacet
  facet normal 0 1 -0
    outer loop
      vertex 290 1.5 1.5
      vertex 0 1.5 30
      vertex 290 1.5 30
    endloop
  endfacet
  facet normal 0 1 0
    outer loop
      vertex 0 1.5 30
      vertex 290 1.5 1.5
      vertex 0 1.5 1.5
    endloop
  endfacet
  facet normal -0 0 1
    outer loop
      vertex 0 30 1.5
      vertex 290 1.5 1.5
      vertex 290 30 1.5
    endloop
  endfacet
  facet normal 0 0 1
    outer loop
      vertex 290 1.5 1.5
      vertex 0 30 1.5
      vertex 0 1.5 1.5
    endloop
  endfacet
  facet normal 0 1 -0
    outer loop
      vertex 290 30 0
      vertex 0 30 1.5
      vertex 290 30 1.5
    endloop
  endfacet
  facet normal 0 1 0
    outer loop
      vertex 0 30 1.5
      vertex 290 30 0
      vertex 0 30 0
    endloop
  endfacet
endsolid OpenSCAD_Model
